<?xml version="1.0" encoding="UTF-8"?>
<!-- Wordmark derived from cabq.gov Plone theme SVG; fills adjusted for Burque Bingo header (civic teal + chile accent). -->
<svg width="442px" height="90px" viewBox="0 0 442 90" version="1.1" xmlns="http://www.w3.org/2000/svg">
    <title>City of Albuquerque</title>
    <g stroke="none" stroke-width="1" fill="none" fill-rule="evenodd">
        <g transform="translate(0, 0.5)" fill-rule="nonzero">
            <path d="M1.9,20.7 C1.9,9.8 10.3,2.4 21.1,2.4 C30.6,2.4 35.3,7.8 37.4,12.7 L28.2,17 C27.3,14.2 24.5,11.9 21.1,11.9 C16.2,11.9 12.8,15.8 12.8,20.8 C12.8,25.8 16.2,29.7 21.1,29.7 C24.5,29.7 27.3,27.3 28.2,24.6 L37.4,28.8 C35.3,33.5 30.6,39.1 21.1,39.1 C10.3,39 1.9,31.6 1.9,20.7 Z" fill="#FFFFFF"></path>
            <polygon fill="#FFFFFF" points="44.7 38.4 44.7 3 55.4 3 55.4 38.3 44.7 38.3"></polygon>
            <polygon fill="#FFFFFF" points="72.7 38.4 72.7 12.4 63.2 12.4 63.2 3.1 92.8 3.1 92.8 12.4 83.4 12.4 83.4 38.4"></polygon>
            <polygon fill="#FFFFFF" points="110.1 38.4 110.1 24.4 96.9 3.1 108.9 3.1 115.5 15 122 3.1 134 3.1 120.9 24.4 120.9 38.4 110.1 38.4"></polygon>
            <path d="M156.5,38.9 C152.7,38.9 149.9,37.7 148,35.2 C146.1,32.7 145.4,29.3 146.1,24.8 C146.5,21.9 147.4,19.4 148.7,17.3 C150,15.1 151.7,13.5 153.7,12.3 C155.7,11.1 158.1,10.5 160.7,10.5 C164.5,10.5 167.3,11.8 169.2,14.3 C171.1,16.8 171.7,20.4 171.1,24.8 C170.7,27.6 169.9,30 168.6,32.1 C167.3,34.2 165.7,35.9 163.7,37.1 C161.5,38.3 159.2,38.9 156.5,38.9 Z M157.3,34 C159.4,34 161.1,33.1 162.3,31.4 C163.6,29.6 164.4,27.4 164.8,24.7 C165,23 165,21.5 164.8,20.1 C164.6,18.7 164.1,17.6 163.3,16.7 C162.5,15.8 161.4,15.4 159.9,15.4 C157.7,15.4 156,16.3 154.8,18 C153.5,19.7 152.7,22 152.3,24.7 C152.1,26.4 152.1,27.9 152.3,29.3 C152.5,30.7 153,31.9 153.8,32.7 C154.6,33.5 155.8,34 157.3,34 Z" fill="#D4622A"></path>
            <path d="M177,38.4 L180.3,15.6 L175.2,15.6 L175.9,11 L181,11 L181.6,6.9 C181.9,4.7 182.8,3 184.1,1.8 C185.4,0.6 187.2,-7.10542736e-15 189.5,-7.10542736e-15 L195.1,-7.10542736e-15 L194.5,4.4 L190.9,4.4 C189.9,4.4 189.1,4.7 188.7,5.2 C188.2,5.7 187.9,6.6 187.8,7.7 L187.3,10.9 L193.3,10.9 L192.6,15.5 L186.7,15.5 L183.4,38.3 L177,38.3 L177,38.4 Z" fill="#D4622A"></path>
            <path d="M27.9,86.4 L26.5,81.8 L13,81.8 L11.6,86.4 L0,86.4 L13,51.1 L26.5,51.1 L39.5,86.4 L27.9,86.4 Z M19.8,60.5 L15.8,73 L23.9,73 L19.8,60.5 Z" fill="#FFFFFF"></path>
            <polygon fill="#FFFFFF" points="45.4 86.4 45.4 51 56.1 51 56.1 77 69.5 77 69.5 86.3 45.4 86.3"></polygon>
            <path d="M77.8,86.4 L77.8,51 L99.3,51 C106.6,51 109.8,55.9 109.8,60 C109.8,64.4 107.2,67.4 103.8,68.1 C107.6,68.7 110.5,72.2 110.5,76.7 C110.5,81.6 107.2,86.3 100.1,86.3 L77.8,86.3 L77.8,86.4 Z M88.5,64.2 L96.8,64.2 C97.9,64.2 98.9,63.2 98.9,61.9 C98.9,60.7 97.9,59.7 96.8,59.7 L88.5,59.7 L88.5,64.2 Z M88.5,77.7 L97.1,77.7 C98.6,77.7 99.6,76.6 99.6,75.3 C99.6,74 98.6,72.9 97.1,72.9 L88.5,72.9 L88.5,77.7 Z" fill="#FFFFFF"></path>
            <path d="M118.7,51 L129.6,51 L129.6,71.5 C129.6,74.9 131.3,77.6 135.7,77.6 C140,77.6 141.8,74.9 141.8,71.5 L141.8,51 L152.7,51 L152.7,71.8 C152.7,80.6 147.7,87 135.7,87 C123.8,87 118.7,80.6 118.7,71.8 L118.7,51 Z" fill="#FFFFFF"></path>
            <path d="M194.8,80.7 L196.7,83.1 L189.3,89 L186.8,85.9 C184.7,86.6 182.3,87 179.9,87 C169,87 160.6,79.6 160.6,68.7 C160.6,57.8 168.9,50.5 179.8,50.5 C190.7,50.5 199.1,57.9 199.1,68.8 C199.2,73.5 197.5,77.6 194.8,80.7 Z M180.2,77.6 L177.3,73.9 L184.7,68 L187.8,72 C188.2,71 188.3,69.9 188.3,68.8 C188.3,63.9 185,59.9 179.8,59.9 C174.7,59.9 171.3,63.8 171.3,68.8 C171.3,73.8 174.6,77.7 179.8,77.7 L180.2,77.7 L180.2,77.6 Z" fill="#FFFFFF"></path>
            <path d="M207,51 L217.9,51 L217.9,71.5 C217.9,74.9 219.6,77.6 224,77.6 C228.3,77.6 230.1,74.9 230.1,71.5 L230.1,51 L241,51 L241,71.8 C241,80.6 236,87 224,87 C212.1,87 207,80.6 207,71.8 L207,51 Z" fill="#FFFFFF"></path>
            <polygon fill="#FFFFFF" points="250.6 86.4 250.6 51 277.4 51 277.4 59.9 261.3 59.9 261.3 64 277 64 277 72.9 261.3 72.9 261.3 77.4 277.4 77.4 277.4 86.3 250.6 86.3"></polygon>
            <path d="M305.7,86.4 L300.8,75.1 L296.9,75.1 L296.9,86.4 L286.2,86.4 L286.2,51 L305.1,51 C313.4,51 317.8,56.5 317.8,63.1 C317.8,69.2 314.2,72.4 311.4,73.8 L317.8,86.3 L305.7,86.3 L305.7,86.4 Z M303.4,59.9 L296.9,59.9 L296.9,66.1 L303.4,66.1 C305.2,66.1 306.9,64.9 306.9,63 C306.9,61.1 305.2,59.9 303.4,59.9 Z" fill="#FFFFFF"></path>
            <path d="M358.5,80.7 L360.4,83.1 L353,89 L350.5,85.9 C348.4,86.6 346,87 343.6,87 C332.7,87 324.3,79.6 324.3,68.7 C324.3,57.8 332.6,50.5 343.6,50.5 C354.5,50.5 362.9,57.9 362.9,68.8 C362.9,73.5 361.3,77.6 358.5,80.7 Z M343.9,77.6 L341,73.9 L348.4,68 L351.5,72 C351.9,71 352,69.9 352,68.8 C352,63.9 348.7,59.9 343.5,59.9 C338.4,59.9 335,63.8 335,68.8 C335,73.8 338.3,77.7 343.5,77.7 L343.9,77.7 L343.9,77.6 Z" fill="#FFFFFF"></path>
            <path d="M370.7,51 L381.6,51 L381.6,71.5 C381.6,74.9 383.3,77.6 387.7,77.6 C392,77.6 393.8,74.9 393.8,71.5 L393.8,51 L404.7,51 L404.7,71.8 C404.7,80.6 399.7,87 387.7,87 C375.8,87 370.7,80.6 370.7,71.8 L370.7,51 Z" fill="#FFFFFF"></path>
            <polygon fill="#FFFFFF" points="414.4 86.4 414.4 51 441.2 51 441.2 59.9 425.1 59.9 425.1 64 440.8 64 440.8 72.9 425.1 72.9 425.1 77.4 441.2 77.4 441.2 86.3 414.4 86.3"></polygon>
        </g>
    </g>
</svg>
